PathFileType	4	(X/Y/Z)	C:/Users/opensim2020/Desktop/walking_exp_matlab/subject06_walking20_straight_04.trc	
DataRate	CameraRate	NumFrames	NumMarkers	Units	OrigDataRate	OrigDataStartFrame	OrigNumFrames	
100.00	100.00	5	43	mm	100.00	2236	126	
Frame#	Time	LFHD			RFHD			LBHD			RBHD			C7			T10			CLAV			STRN			RBAK			LSHO			LUPA			LELB			LFRM			LWRA			LWRB			LFIN			RSHO			RUPA			RELB			RFRM			RWRA			RWRB			RFIN			LASI			RASI			LPSI			RPSI			LTHI			LKNE			LTIB			LANK			LHEE			LTOE			RTHI			RKNE			RTIB			RANK			RHEE			RTOE			*39			*40			*41			*42			
		X1	Y1	Z1	X2	Y2	Z2	X3	Y3	Z3	X4	Y4	Z4	X5	Y5	Z5	X6	Y6	Z6	X7	Y7	Z7	X8	Y8	Z8	X9	Y9	Z9	X10	Y10	Z10	X11	Y11	Z11	X12	Y12	Z12	X13	Y13	Z13	X14	Y14	Z14	X15	Y15	Z15	X16	Y16	Z16	X17	Y17	Z17	X18	Y18	Z18	X19	Y19	Z19	X20	Y20	Z20	X21	Y21	Z21	X22	Y22	Z22	X23	Y23	Z23	X24	Y24	Z24	X25	Y25	Z25	X26	Y26	Z26	X27	Y27	Z27	X28	Y28	Z28	X29	Y29	Z29	X30	Y30	Z30	X31	Y31	Z31	X32	Y32	Z32	X33	Y33	Z33	X34	Y34	Z34	X35	Y35	Z35	X36	Y36	Z36	X37	Y37	Z37	X38	Y38	Z38	X39	Y39	Z39	X40	Y40	Z40	X41	Y41	Z41	X42	Y42	Z42	X43	Y43	Z43	

79	0.780	1511.41956	19.14397	1666.31738	1380.93311	31.62984	1649.06335	1525.48975	155.46022	1621.86011	1397.03210	166.00830	1610.16943	1471.38428	168.25308	1455.39441	1460.23425	198.10742	1125.65173	1467.00659	58.10456	1379.68323	1472.44104	13.44656	1206.68726	1392.67932	240.73213	1284.41333	1629.85168	110.91541	1411.36890	1708.51636	115.64527	1212.21094	1723.70105	123.44577	1099.44299	1746.28418	96.69341	951.99469	1694.72351	48.90429	833.31293	1747.36182	97.51167	833.18872	1741.40991	61.31647	749.86200	1307.65845	109.24403	1410.74011	1217.86047	163.71225	1219.06238	1204.64343	165.28201	1096.30237	1187.09973	154.25874	976.13452	1220.45886	97.85385	836.05176	1179.25830	151.70050	838.13263	1179.20337	116.87460	761.29669	1568.53308	14.12205	972.80994	1348.62756	18.17403	975.66248	1540.25671	173.13269	994.34912	1373.39319	168.06584	991.01160	1622.27441	66.32100	655.14978	1595.55371	59.30904	491.20428	1590.85962	126.32494	240.79283	1545.99792	157.94574	72.51503	1503.55774	203.13763	60.98806	1537.42871	17.55629	40.11586	1287.69104	-10.08117	646.49561	1307.46411	-59.92142	530.38361	1321.32385	62.26063	301.09167	1371.52014	155.13136	142.92259	1421.37244	197.03983	133.14600	1356.53711	32.71963	56.14449	1458.67334	121.54357	1708.79773									 
80	0.790	1510.41882	4.17214	1666.13940	1380.00574	16.90065	1648.60876	1524.86780	140.48222	1621.98132	1396.52783	151.33005	1610.01416	1471.18079	153.63098	1455.18286	1460.31348	183.00682	1125.34045	1466.82300	43.40395	1379.71936	1472.78186	-1.70477	1206.75867	1393.18713	225.93356	1283.94702	1629.60583	96.89644	1411.64026	1709.09998	98.37784	1212.80054	1725.06604	103.40721	1099.89563	1747.59583	70.80582	953.50928	1696.48584	16.16855	837.77466	1747.62878	66.25981	834.59705	1742.32922	25.45779	753.59949	1307.45361	94.71629	1410.19861	1218.51843	150.97528	1218.54639	1205.42078	154.16083	1095.78577	1187.63867	147.22691	975.29932	1219.73840	96.38113	832.67377	1178.88562	150.37723	837.20404	1178.67761	119.29012	758.62634	1569.29126	0.00825	972.08899	1349.91760	2.67453	975.41919	1539.89575	158.90800	994.48047	1373.03870	152.41129	991.33875	1622.67163	57.26840	654.69183	1596.20862	53.47983	490.44980	1591.18030	123.84325	240.85364	1545.86267	157.56500	72.92692	1503.41223	202.75009	61.73446	1537.75549	17.52083	39.97878	1287.74280	-29.05989	648.07361	1308.14270	-79.51627	532.57849	1321.38416	31.46119	296.34460	1371.09790	114.78539	132.54402	1421.02966	155.68204	119.98960	1355.35632	-13.02758	54.13113	1457.77063	106.51675	1708.67786									 
81	0.800	1509.44958	-10.79513	1665.62854	1379.08423	2.24816	1647.79150	1524.22717	125.59219	1621.59949	1395.97205	136.65703	1609.33325	1470.79517	138.96999	1454.48938	1460.17737	167.84598	1124.59351	1466.60229	28.63844	1379.25549	1473.01868	-16.83158	1206.43457	1393.48914	211.10721	1283.02856	1629.34045	82.76028	1411.49146	1709.59546	81.20452	1213.00244	1726.31433	83.54315	1100.07202	1748.89355	45.02223	954.99127	1698.24316	-16.71889	842.76007	1747.42224	35.16082	836.03137	1743.02771	-10.37333	757.91370	1307.12231	80.10932	1409.19617	1219.12549	138.31297	1217.73792	1206.39661	142.83893	1095.04199	1188.04224	140.07359	974.39478	1218.74402	94.37112	829.58923	1178.51587	148.45445	836.55579	1178.12744	121.04889	756.40729	1570.00769	-13.18807	970.79572	1351.14026	-13.06277	974.67517	1539.41553	144.82146	994.27008	1372.42322	136.27896	991.09686	1622.80542	48.04393	653.84052	1596.69690	47.15062	489.45279	1591.35986	121.04736	240.76462	1545.73071	157.05428	73.33871	1503.17688	202.50513	62.62133	1537.88110	17.26458	39.88287	1287.68481	-47.64331	649.31848	1308.52966	-98.44949	534.22522	1320.85913	0.86567	291.58649	1370.60632	73.43721	122.61032	1420.53857	113.68007	107.43343	1354.37585	-58.81527	52.32516	1456.89197	91.68382	1708.13147									 
82	0.810	1508.41528	-25.54572	1664.73755	1378.13098	-12.38428	1646.67944	1523.62878	110.67484	1620.73010	1395.36621	121.98066	1608.22583	1470.52869	124.24799	1453.41101	1459.86768	152.68283	1123.45654	1466.32715	13.73807	1378.41003	1473.16760	-31.92035	1205.54639	1393.77490	196.21649	1281.70605	1629.03113	68.35860	1410.91223	1710.03857	64.13592	1212.80298	1727.46448	63.80248	1099.96716	1749.87280	19.36156	956.41010	1699.58289	-48.83772	848.04187	1747.20605	3.85873	837.95300	1743.44812	-46.09589	762.76306	1306.71387	65.44836	1407.84570	1219.65747	125.73170	1216.64087	1206.87183	132.03575	1093.94165	1188.39832	132.78136	973.45001	1217.70801	92.52852	826.89465	1177.79260	146.90732	835.91187	1177.29675	122.44482	754.55493	1570.93201	-26.87373	969.18890	1352.41992	-28.82645	973.48132	1538.77795	130.83073	993.63757	1371.76843	120.54475	990.38800	1622.83997	38.62041	652.84906	1597.02771	40.39942	488.26239	1591.43286	117.95126	240.60957	1545.45740	156.40004	73.71740	1502.76465	201.98979	63.45496	1537.99353	17.02500	39.73741	1287.44507	-65.61961	649.98914	1308.67542	-116.77714	535.02246	1320.41577	-29.36830	286.81833	1369.94812	31.83468	113.24459	1420.21069	70.74226	95.49012	1352.81079	-104.44460	51.18559	1456.02747	76.94154	1707.11951									 
83	0.820	1507.45837	-40.43502	1663.57825	1377.14099	-26.95274	1645.23083	1522.95752	95.81413	1619.44482	1394.79626	107.33205	1606.64917	1470.08508	109.31492	1452.01587	1459.38770	137.50677	1122.02295	1465.95703	-1.20285	1377.11389	1473.32104	-46.91468	1204.25720	1393.94958	181.28436	1279.99854	1628.55261	53.82858	1409.87646	1710.33936	47.16437	1212.28015	1728.50452	44.22053	1099.51953	1750.68127	-6.23325	957.81866	1700.71240	-80.21252	853.67999	1746.78052	-27.36507	840.06580	1743.68701	-81.70166	768.24628	1306.21887	50.66254	1406.10742	1220.13428	113.19418	1215.22266	1207.44128	120.98041	1092.72900	1188.56165	125.47484	972.39844	1217.00000	89.99320	823.83929	1177.17700	144.13939	835.50867	1176.38074	123.18037	752.98944	1571.86792	-40.44301	967.26514	1353.53040	-44.62127	971.89807	1537.98792	116.95671	992.58258	1371.00952	105.00542	989.33557	1622.82056	29.04031	651.59650	1597.25574	33.40126	486.94678	1591.30457	114.69761	240.42352	1545.20349	155.72598	74.19908	1502.15613	201.37596	64.35204	1538.12451	16.72601	39.75718	1287.06226	-83.23682	650.12488	1308.71899	-134.72810	535.28088	1319.99792	-59.28947	282.32208	1369.15295	-10.03407	104.71904	1419.45227	27.61012	85.01832	1350.92041	-149.64386	50.29164	1455.12744	62.27243	1705.74585									 
